<?xml version="1.0" encoding="utf-8"?>
<svg xmlns="http://www.w3.org/2000/svg" viewBox="5.447 11.95 89.507 41.056" width="89.507px" height="41.056px">
  <path d="M 9.259 13.81 L 9.259 34.391 L 5.447 34.391 L 5.447 11.956 L 7.306 11.956 C 8.369 11.942 9.243 12.771 9.259 13.81 Z M 40.2 13.816 L 40.2 15.595 L 24.736 15.595 C 22.314 15.567 20.325 17.459 20.289 19.827 L 20.289 26.514 C 20.323 28.882 22.313 30.776 24.736 30.746 L 36.374 30.746 L 36.374 25.818 L 32.945 25.818 C 31.763 25.835 30.79 24.912 30.774 23.757 L 30.774 22.199 L 38.196 22.199 C 39.274 22.185 40.159 23.026 40.176 24.079 L 40.176 31.492 C 40.142 33.111 38.78 34.402 37.124 34.388 L 24.736 34.388 C 20.171 34.388 16.473 30.861 16.473 26.524 L 16.473 19.827 C 16.473 15.489 20.185 11.96 24.736 11.96 L 38.23 11.96 C 39.299 11.938 40.183 12.77 40.2 13.816 Z M 94.954 11.95 L 94.954 34.394 L 92.282 34.394 C 91.581 34.398 90.928 34.051 90.55 33.474 C 88.554 30.395 85.327 25.525 82.694 22.101 C 81.312 20.297 80.008 18.614 78.882 17.172 L 78.882 34.391 L 75.066 34.391 L 75.066 11.956 L 78.29 11.956 C 78.928 11.954 79.53 12.24 79.921 12.732 C 81.346 14.53 83.39 17.149 85.636 20.07 C 87.407 22.377 89.404 25.262 91.142 27.851 L 91.142 11.95 L 94.954 11.95 Z M 68.149 13.826 L 68.149 15.587 L 57.469 15.587 C 54.093 15.549 51.253 18.05 50.94 21.335 L 68.149 21.335 L 68.149 24.966 L 50.94 24.966 C 51.252 28.252 54.093 30.754 57.469 30.713 L 68.138 30.713 L 68.138 32.479 C 68.122 33.519 67.246 34.349 66.182 34.335 L 57.469 34.335 C 51.747 34.335 47.108 29.931 47.108 24.503 L 47.108 21.815 C 47.108 16.386 51.754 11.983 57.469 11.983 L 66.192 11.983 C 67.252 11.966 68.126 12.79 68.149 13.826 Z" style="stroke-width: 1; fill: rgb(255, 255, 255);" transform="matrix(1, 0, 0, 1, -2.842170943040401e-14, -5.684341886080802e-14)"/>
  <path d="M 45.53 52.794 L 40.545 52.794 L 40.545 37.771 L 45.571 37.771 C 46.986 37.771 48.203 38.072 49.225 38.674 C 50.245 39.271 51.031 40.129 51.581 41.249 C 52.135 42.368 52.411 43.707 52.411 45.267 C 52.411 46.832 52.135 48.177 51.581 49.303 C 51.031 50.426 50.242 51.291 49.212 51.891 C 48.187 52.493 46.958 52.794 45.53 52.794 Z M 43.52 50.072 L 45.406 50.072 C 46.285 50.072 47.025 49.907 47.625 49.573 C 48.229 49.237 48.683 48.716 48.986 48.011 C 49.292 47.301 49.445 46.388 49.445 45.267 C 49.445 44.157 49.292 43.25 48.986 42.546 C 48.683 41.843 48.232 41.324 47.632 40.992 C 47.031 40.658 46.292 40.492 45.413 40.492 L 43.52 40.492 L 43.52 50.072 Z M 67.539 45.282 C 67.539 46.921 67.249 48.314 66.667 49.463 C 66.089 50.613 65.302 51.491 64.303 52.097 C 63.311 52.698 62.193 52.999 60.952 52.999 C 59.702 52.999 58.582 52.696 57.588 52.089 C 56.594 51.484 55.809 50.605 55.232 49.457 C 54.656 48.307 54.367 46.915 54.367 45.282 C 54.367 43.644 54.656 42.251 55.232 41.102 C 55.809 39.952 56.594 39.077 57.588 38.476 C 58.582 37.869 59.702 37.566 60.952 37.566 C 62.193 37.566 63.311 37.869 64.303 38.476 C 65.302 39.077 66.089 39.952 66.667 41.102 C 67.249 42.251 67.539 43.644 67.539 45.282 Z M 64.523 45.282 C 64.523 44.221 64.374 43.327 64.077 42.598 C 63.785 41.87 63.37 41.316 62.834 40.94 C 62.298 40.563 61.671 40.376 60.952 40.376 C 60.234 40.376 59.607 40.563 59.072 40.94 C 58.536 41.316 58.12 41.87 57.822 42.598 C 57.528 43.327 57.382 44.221 57.382 45.282 C 57.382 46.344 57.528 47.239 57.822 47.967 C 58.12 48.697 58.536 49.248 59.072 49.625 C 59.607 50.001 60.234 50.191 60.952 50.191 C 61.671 50.191 62.298 50.001 62.834 49.625 C 63.37 49.248 63.785 48.697 64.077 47.967 C 64.374 47.239 64.523 46.344 64.523 45.282 Z M 82.15 43.03 L 79.141 43.03 C 79.087 42.615 78.975 42.247 78.805 41.922 C 78.636 41.596 78.42 41.316 78.154 41.086 C 77.887 40.857 77.581 40.681 77.232 40.559 C 76.889 40.436 76.516 40.376 76.113 40.376 C 75.386 40.376 74.752 40.569 74.211 40.955 C 73.672 41.336 73.252 41.893 72.954 42.627 C 72.657 43.356 72.509 44.24 72.509 45.282 C 72.509 46.353 72.657 47.253 72.954 47.982 C 73.257 48.71 73.679 49.26 74.218 49.633 C 74.759 50.003 75.384 50.191 76.093 50.191 C 76.491 50.191 76.86 50.132 77.198 50.021 C 77.542 49.909 77.846 49.745 78.112 49.531 C 78.379 49.311 78.597 49.042 78.772 48.729 C 78.949 48.417 79.074 48.059 79.141 47.658 L 82.15 47.673 C 82.071 48.363 81.878 49.029 81.566 49.669 C 81.261 50.304 80.845 50.874 80.324 51.378 C 79.806 51.877 79.188 52.273 78.469 52.566 C 77.755 52.854 76.947 52.999 76.046 52.999 C 74.791 52.999 73.668 52.696 72.681 52.089 C 71.696 51.484 70.917 50.605 70.344 49.457 C 69.778 48.307 69.495 46.915 69.495 45.282 C 69.495 43.644 69.781 42.251 70.36 41.102 C 70.936 39.952 71.718 39.077 72.708 38.476 C 73.696 37.869 74.809 37.566 76.046 37.566 C 76.86 37.566 77.615 37.688 78.312 37.933 C 79.013 38.178 79.632 38.535 80.172 39.004 C 80.713 39.469 81.151 40.038 81.492 40.712 C 81.833 41.388 82.055 42.16 82.15 43.03 Z M 91.912 42.092 C 91.857 41.5 91.622 41.04 91.205 40.712 C 90.789 40.386 90.223 40.222 89.508 40.222 C 89.024 40.222 88.614 40.295 88.279 40.442 C 87.944 40.583 87.689 40.781 87.51 41.036 C 87.336 41.289 87.249 41.578 87.249 41.901 C 87.24 42.169 87.293 42.405 87.407 42.606 C 87.526 42.806 87.689 42.98 87.895 43.127 C 88.101 43.267 88.338 43.393 88.609 43.501 C 88.879 43.604 89.167 43.691 89.474 43.764 L 90.738 44.088 C 91.352 44.234 91.914 44.429 92.426 44.674 C 92.94 44.917 93.383 45.219 93.759 45.576 C 94.134 45.933 94.426 46.353 94.631 46.838 C 94.842 47.323 94.95 47.876 94.954 48.502 C 94.95 49.422 94.73 50.22 94.294 50.893 C 93.864 51.564 93.242 52.084 92.426 52.456 C 91.617 52.823 90.639 53.006 89.495 53.006 C 88.359 53.006 87.369 52.821 86.528 52.448 C 85.689 52.078 85.035 51.528 84.564 50.799 C 84.096 50.065 83.852 49.158 83.83 48.077 L 86.706 48.077 C 86.738 48.581 86.873 49.002 87.111 49.339 C 87.354 49.671 87.677 49.922 88.081 50.094 C 88.487 50.26 88.947 50.343 89.46 50.343 C 89.964 50.343 90.401 50.266 90.772 50.109 C 91.147 49.954 91.438 49.735 91.644 49.457 C 91.85 49.177 91.953 48.857 91.953 48.496 C 91.953 48.158 91.86 47.874 91.671 47.645 C 91.488 47.415 91.219 47.218 90.862 47.058 C 90.508 46.896 90.076 46.749 89.562 46.618 L 88.033 46.207 C 86.845 45.898 85.911 45.417 85.224 44.761 C 84.537 44.107 84.195 43.223 84.2 42.114 C 84.195 41.204 84.421 40.409 84.88 39.73 C 85.343 39.05 85.977 38.52 86.781 38.137 C 87.587 37.757 88.504 37.566 89.529 37.566 C 90.573 37.566 91.484 37.757 92.263 38.137 C 93.045 38.52 93.654 39.05 94.089 39.73 C 94.524 40.409 94.749 41.197 94.762 42.092 L 91.912 42.092 Z" style="stroke-width: 1; fill: rgb(22, 119, 255);" transform="matrix(1, 0, 0, 1, -2.842170943040401e-14, -5.684341886080802e-14)"/>
</svg>
